<?xml version="1.0" encoding="UTF-8" standalone="no"?>
<svg xmlns="http://www.w3.org/2000/svg" viewBox="0 0 1200 1200" width="100%" height="100%">
  <g fill="#3e6e3c">
    <path d="M600 50c-300 0-550 250-550 550s250 550 550 550 550-250 550-550S900 50 600 50zm0 1050c-275 0-500-225-500-500s225-500 500-500 500 225 500 500-225 500-500 500z"/>
    <path d="M600 150c-250 0-450 200-450 450s200 450 450 450 450-200 450-450-200-450-450-450zm0 850c-220 0-400-180-400-400s180-400 400-400 400 180 400 400-180 400-400 400z"/>
    <path d="M150 600h900M600 150v900M260 260l680 680M260 940l680-680M370 150l-220 450h440L370 150zM830 150l220 450H610l220-450zM370 1050l-220-450h440l-220 450zM830 1050l220-450H610l220 450z"/>
    <path d="M150 400c-20 65-30 130-30 200s10 135 30 200h900c20-65 30-130 30-200s-10-135-30-200H150z"/>
    <path d="M250 350h700v500H250z"/>
    <path d="M300 400h600v400H300z" fill="#fff"/>
    <path d="M180 250l-30 100 100-30-70-70zM1020 250l30 100-100-30 70-70zM180 950l-30-100 100 30-70 70zM1020 950l30-100-100 30 70 70z"/>
    <path d="M150 450h900v300H150z"/>
    <path d="M200 500h800v200H200z" fill="#fff"/>
    <text x="250" y="350" font-family="Arial, sans-serif" font-size="120" font-weight="bold" fill="#3e6e3c">EST.</text>
    <text x="600" y="650" font-family="Arial, sans-serif" font-size="150" font-weight="bold" fill="#fff" text-anchor="middle">MATMAX</text>
    <text x="950" y="850" font-family="Arial, sans-serif" font-size="120" font-weight="bold" fill="#3e6e3c">MMXX</text>
  </g>
</svg>